<svg width="189" height="37" viewBox="0 0 189 37" fill="none" xmlns="http://www.w3.org/2000/svg">
  <g fill="var(--primary, currentColor)">
    <rect x="2.39215" y="4.34859" width="8.50079" height="28.336" rx="4.2504"/>
    <rect x="36.3922" y="4.34863" width="8.50079" height="28.336" rx="4.2504"/>
    <rect x="22.2278" y="4.34789" width="8.50079" height="28.336" rx="4.2504"/>
    <rect x="24.3425" y="2.50175" width="8.50079" height="34.4137" rx="4.2504"
      transform="rotate(39.6307 24.3425 2.50175)"/>
    <rect x="40.3425" y="2.50195" width="8.50079" height="29.3663" rx="4.2504"
      transform="rotate(39.6307 40.3425 2.50195)"/>
  </g>

  <rect x="-6.10352e-05" y="20.2648" width="47.3745" height="2.8336"
    transform="rotate(-14.4398 -6.10352e-05 20.2648)" fill="white"/>
  <path fill="currentColor"
    d="M60.74 29.5H57.268V9.032H60.74L67.348 25.328L73.956 9.032H77.484V29.5H74.012V23.2C74.012 19.084 74.012 17.88 74.208 16.424L69 29.5H65.696L60.516 16.452C60.712 17.684 60.74 19.616 60.74 22.164V29.5ZM87.6981 29.864C83.5821 29.864 80.6981 26.868 80.6981 22.584C80.6981 18.244 83.5261 15.248 87.5861 15.248C91.7301 15.248 94.3621 18.02 94.3621 22.332V23.368L83.9461 23.396C84.1981 25.832 85.4861 27.064 87.7541 27.064C89.6301 27.064 90.8621 26.336 91.2541 25.02H94.4181C93.8301 28.044 91.3101 29.864 87.6981 29.864ZM87.6141 18.048C85.5981 18.048 84.3661 19.14 84.0301 21.212H90.9741C90.9741 19.308 89.6581 18.048 87.6141 18.048ZM101.663 29.5H98.2473V18.524H95.5873V15.668H98.2473V11.356H101.663V15.668H104.351V18.524H101.663V29.5ZM110.509 29.864C107.569 29.864 105.777 28.156 105.777 25.552C105.777 23.004 107.625 21.408 110.901 21.156L115.045 20.848V20.54C115.045 18.664 113.925 17.908 112.189 17.908C110.173 17.908 109.053 18.748 109.053 20.204H106.141C106.141 17.208 108.605 15.248 112.357 15.248C116.081 15.248 118.377 17.264 118.377 21.1V29.5H115.381L115.129 27.456C114.541 28.884 112.665 29.864 110.509 29.864ZM111.629 27.288C113.729 27.288 115.073 26.028 115.073 23.9V23.172L112.189 23.396C110.061 23.592 109.249 24.292 109.249 25.412C109.249 26.672 110.089 27.288 111.629 27.288ZM125.177 29.5H121.789V8.668H125.177V29.5ZM132.204 29.5H128.816V8.668H132.204V29.5ZM137.495 12.896C136.319 12.896 135.395 11.972 135.395 10.824C135.395 9.676 136.319 8.78 137.495 8.78C138.615 8.78 139.539 9.676 139.539 10.824C139.539 11.972 138.615 12.896 137.495 12.896ZM135.787 29.5V15.668H139.203V29.5H135.787ZM141.921 22.556C141.921 18.272 144.749 15.248 148.837 15.248C152.617 15.248 155.193 17.348 155.557 20.68H152.141C151.749 19.112 150.601 18.3 148.977 18.3C146.793 18.3 145.337 19.952 145.337 22.556C145.337 25.16 146.681 26.784 148.865 26.784C150.573 26.784 151.777 25.944 152.141 24.432H155.585C155.165 27.652 152.477 29.864 148.865 29.864C144.665 29.864 141.921 26.952 141.921 22.556ZM156.923 23.732V22.528H160.367V23.732C160.367 25.3 161.235 26.532 163.251 26.532C165.267 26.532 166.107 25.384 166.107 23.592V9.032H169.691V23.788C169.691 27.4 167.171 29.864 163.279 29.864C159.079 29.864 156.923 27.26 156.923 23.732ZM172.905 14.744C172.905 11.16 175.873 8.668 180.185 8.668C184.329 8.668 186.961 10.964 187.073 14.66H183.489C183.405 12.896 182.145 11.86 180.129 11.86C177.917 11.86 176.489 12.924 176.489 14.632C176.489 16.088 177.273 16.9 178.981 17.292L182.201 17.992C185.701 18.748 187.409 20.54 187.409 23.592C187.409 27.4 184.441 29.864 179.933 29.864C175.565 29.864 172.709 27.54 172.625 23.872H176.209C176.237 25.608 177.637 26.644 179.933 26.644C182.313 26.644 183.825 25.608 183.825 23.9C183.825 22.528 183.125 21.716 181.445 21.352L178.197 20.624C174.725 19.868 172.905 17.88 172.905 14.744Z"
  />
</svg>


