<svg width="24" height="24" viewBox="0 0 24 24" fill="none" xmlns="http://www.w3.org/2000/svg">
<path d="M14.659 22.8485C14.6624 22.8164 14.6641 22.7838 14.6641 22.7508V14.9191H17.3412C17.7705 14.9191 18.1569 14.6365 18.2196 14.2119C18.3234 13.5094 18.2793 12.8707 18.2122 12.4165C18.1505 11.9996 17.779 11.7251 17.3575 11.7251H14.6641C14.6641 9.31155 15.0658 8.96036 17.3296 8.91643C17.764 8.90802 18.154 8.62121 18.217 8.19133C18.323 7.46875 18.2808 6.83742 18.2142 6.39328C18.1528 5.98303 17.7849 5.7156 17.3702 5.71923C13.3689 5.75412 11.09 6.22721 11.09 11.7251H9.01709C8.61423 11.7251 8.25656 11.9776 8.19562 12.3758C8.12998 12.8048 8.0903 13.4268 8.19987 14.1832C8.26319 14.6201 8.65623 14.9191 9.09781 14.9191H11.09V22.8721C7.99184 22.8517 5.77426 22.7294 4.3303 22.6121C2.74117 22.483 1.51504 21.2568 1.38593 19.6677C1.25745 18.0865 1.12305 15.5773 1.12305 12C1.12305 8.42266 1.25745 5.91353 1.38593 4.33225C1.51504 2.74312 2.74117 1.51699 4.33031 1.38788C5.91158 1.2594 8.4207 1.125 11.998 1.125C15.5754 1.125 18.0845 1.25941 19.6658 1.38788C21.2549 1.51699 22.4811 2.74313 22.6102 4.33225C22.7386 5.91353 22.873 8.42266 22.873 12C22.873 15.5773 22.7386 18.0865 22.6102 19.6677C22.4811 21.2569 21.2549 22.483 19.6658 22.6121C18.5104 22.706 16.8598 22.803 14.659 22.8485Z" fill="white"/>
</svg>
