<svg width="17" height="16" viewBox="0 0 17 16" fill="none" xmlns="http://www.w3.org/2000/svg">
<path d="M9.77917 2.05442C10.109 1.80809 10.6652 1.7249 11.7274 2.03392V2.03294C13.0104 2.41213 14.0882 3.49194 14.4667 4.77513L14.4677 4.7761C14.7821 5.83515 14.6901 6.38388 14.4393 6.70481L14.4325 6.7136C14.2819 6.91516 14.0598 7.04462 13.7802 7.12278C13.4966 7.20196 13.1849 7.22043 12.9003 7.22044H10.9862C10.3477 7.22036 9.9504 7.04076 9.703 6.76439C9.44641 6.47773 9.27334 6.00046 9.27332 5.24681V3.58665C9.27332 2.96872 9.36353 2.36381 9.7782 2.05345L9.77917 2.05442Z" fill="currentColor" stroke="currentColor"/>
<path d="M6.94543 3.66885C7.05625 3.65432 7.17684 3.69107 7.25989 3.76553L7.26575 3.77139C7.35491 3.84866 7.40637 3.96333 7.40637 4.07998V6.4667C7.40639 7.91614 8.58389 9.09362 10.0333 9.09365H12.42C12.5367 9.09365 12.6514 9.14513 12.7286 9.23428L12.7345 9.24014C12.7907 9.30279 12.8257 9.38297 12.8331 9.46865L12.8312 9.55654C12.6489 10.9841 11.8634 12.3016 10.6798 13.162L10.6779 13.163C9.77111 13.8263 8.70813 14.1669 7.60657 14.1669C7.27047 14.1669 6.93666 14.1356 6.60461 14.0692L6.59973 14.0683L6.40344 14.0282C4.46218 13.5833 2.91621 12.0367 2.4718 10.1015L2.43176 9.90713C2.1569 8.45341 2.47412 7.00753 3.33801 5.82119V5.82021C4.19838 4.63664 5.51597 3.85108 6.94348 3.66885H6.94543Z" fill="currentColor" stroke="currentColor"/>
</svg>
