<svg width="20" height="20" viewBox="0 0 20 20" fill="none" xmlns="http://www.w3.org/2000/svg">
<path d="M8.74999 16.5833V3.41667C8.74999 2.16667 8.21666 1.66667 6.89166 1.66667H3.52499C2.19999 1.66667 1.66666 2.16667 1.66666 3.41667V16.5833C1.66666 17.8333 2.19999 18.3333 3.52499 18.3333H6.89166C8.21666 18.3333 8.74999 17.8333 8.74999 16.5833Z" stroke="currentColor" stroke-width="1.5" stroke-linecap="round" stroke-linejoin="round"/>
<path d="M18.3333 7.1V3.31667C18.3333 2.14167 17.8 1.66667 16.475 1.66667H13.1083C11.7833 1.66667 11.25 2.14167 11.25 3.31667V7.09167C11.25 8.275 11.7833 8.74167 13.1083 8.74167H16.475C17.8 8.75 18.3333 8.275 18.3333 7.1Z" stroke="currentColor" stroke-width="1.5" stroke-linecap="round" stroke-linejoin="round"/>
<path d="M18.3333 16.475V13.1083C18.3333 11.7833 17.8 11.25 16.475 11.25H13.1083C11.7833 11.25 11.25 11.7833 11.25 13.1083V16.475C11.25 17.8 11.7833 18.3333 13.1083 18.3333H16.475C17.8 18.3333 18.3333 17.8 18.3333 16.475Z" stroke="currentColor" stroke-width="1.5" stroke-linecap="round" stroke-linejoin="round"/>
</svg>
