<svg width="17" height="16" viewBox="0 0 17 16" fill="none" xmlns="http://www.w3.org/2000/svg">
<path d="M5.95642 1.83333H11.5433C12.6573 1.83333 13.4863 2.16336 14.0355 2.71321C14.5846 3.26297 14.9136 4.09182 14.9105 5.2054V10.7933C14.9105 11.9072 14.5798 12.7363 14.0297 13.2865C13.4795 13.8365 12.6503 14.1663 11.5365 14.1663H5.95642C4.8427 14.1663 4.01425 13.8362 3.46423 13.2855C2.9141 12.7347 2.58337 11.904 2.58337 10.7865V5.20638C2.58343 4.09263 2.91318 3.26329 3.46326 2.71321C4.01333 2.16314 4.84267 1.83339 5.95642 1.83333ZM11.2679 5.33821C10.9024 5.04062 10.3707 5.04055 10.0052 5.33821L9.93005 5.40657L8.75037 6.58626L7.57068 5.40657L7.49451 5.33821C7.12898 5.04066 6.59726 5.04052 6.23181 5.33821L6.15662 5.40657C5.76802 5.79517 5.76802 6.43204 6.15662 6.82064L7.3363 8.00032L6.15662 9.18001C5.76813 9.56856 5.7682 10.2045 6.15662 10.5931C6.35533 10.7918 6.61153 10.887 6.86365 10.887C7.11568 10.887 7.37204 10.7917 7.57068 10.5931L8.75037 9.41341L9.93005 10.5931C10.1288 10.7918 10.385 10.887 10.6371 10.887C10.8891 10.8869 11.1445 10.7917 11.3431 10.5931C11.7317 10.2045 11.7317 9.56861 11.3431 9.18001L10.1635 8.00032L11.3431 6.82064C11.7076 6.45621 11.7306 5.87333 11.4115 5.48177L11.3431 5.40657L11.2679 5.33821Z" fill="currentColor" stroke="currentColor"/>
</svg>
