<svg width="20" height="20" viewBox="0 0 20 20" fill="none" xmlns="http://www.w3.org/2000/svg">
<path d="M16.6667 5.86667V14.1333C16.6667 15.4 16.55 16.3 16.25 16.9417C16.25 16.95 16.2417 16.9667 16.2333 16.975C16.05 17.2083 15.8083 17.325 15.525 17.325C15.0833 17.325 14.55 17.0333 13.975 16.4167C13.2917 15.6833 12.2416 15.7417 11.6416 16.5417L10.8 17.6583C10.4667 18.1083 10.025 18.3333 9.58333 18.3333C9.14167 18.3333 8.69998 18.1083 8.36665 17.6583L7.51668 16.5333C6.92502 15.7417 5.88333 15.6833 5.19999 16.4083L5.19165 16.4167C4.24998 17.425 3.41668 17.575 2.93335 16.975C2.92502 16.9667 2.91667 16.95 2.91667 16.9417C2.61667 16.3 2.5 15.4 2.5 14.1333V5.86667C2.5 4.6 2.61667 3.7 2.91667 3.05833C2.91667 3.05 2.91668 3.04167 2.93335 3.03333C3.40835 2.425 4.24998 2.575 5.19165 3.58333L5.19999 3.59167C5.88333 4.31667 6.92502 4.25833 7.51668 3.46667L8.36665 2.34167C8.69998 1.89167 9.14167 1.66667 9.58333 1.66667C10.025 1.66667 10.4667 1.89167 10.8 2.34167L11.6416 3.45833C12.2416 4.25833 13.2917 4.31667 13.975 3.58333C14.55 2.96667 15.0833 2.675 15.525 2.675C15.8083 2.675 16.05 2.8 16.2333 3.03333C16.25 3.04167 16.25 3.05 16.25 3.05833C16.55 3.7 16.6667 4.6 16.6667 5.86667Z" stroke="currentColor" stroke-width="1.5" stroke-linecap="round" stroke-linejoin="round"/>
<path d="M6.66666 8.54167H13.3333" stroke="currentColor" stroke-width="1.5" stroke-linecap="round" stroke-linejoin="round"/>
<path d="M6.66666 11.4583H11.6667" stroke="currentColor" stroke-width="1.5" stroke-linecap="round" stroke-linejoin="round"/>
</svg>
