<svg width="20" height="20" viewBox="0 0 20 20" fill="none" xmlns="http://www.w3.org/2000/svg">
<path d="M14.1667 17.0833H5.83332C3.33332 17.0833 1.66666 15.8333 1.66666 12.9167V7.08332C1.66666 4.16666 3.33332 2.91666 5.83332 2.91666H14.1667C16.6667 2.91666 18.3333 4.16666 18.3333 7.08332V12.9167C18.3333 15.8333 16.6667 17.0833 14.1667 17.0833Z" stroke="currentColor" stroke-width="1.5" stroke-miterlimit="10" stroke-linecap="round" stroke-linejoin="round"/>
<path d="M10 12.5C11.3807 12.5 12.5 11.3807 12.5 10C12.5 8.61929 11.3807 7.5 10 7.5C8.61929 7.5 7.5 8.61929 7.5 10C7.5 11.3807 8.61929 12.5 10 12.5Z" stroke="currentColor" stroke-width="1.5" stroke-miterlimit="10" stroke-linecap="round" stroke-linejoin="round"/>
<path d="M7.08333 5H5.83333C4.68333 5 3.75 5.93333 3.75 7.08333V8.33333" stroke="currentColor" stroke-width="1.5" stroke-miterlimit="10" stroke-linecap="round" stroke-linejoin="round"/>
<path d="M12.9167 5H14.1667C15.3167 5 16.25 5.93333 16.25 7.08333V8.33333" stroke="currentColor" stroke-width="1.5" stroke-miterlimit="10" stroke-linecap="round" stroke-linejoin="round"/>
<path d="M7.08333 15H5.83333C4.68333 15 3.75 14.0667 3.75 12.9167V11.6667" stroke="currentColor" stroke-width="1.5" stroke-miterlimit="10" stroke-linecap="round" stroke-linejoin="round"/>
<path d="M12.9167 15H14.1667C15.3167 15 16.25 14.0667 16.25 12.9167V11.6667" stroke="currentColor" stroke-width="1.5" stroke-miterlimit="10" stroke-linecap="round" stroke-linejoin="round"/>
</svg>
