<svg width="20" height="20" viewBox="0 0 20 20" fill="none" xmlns="http://www.w3.org/2000/svg">
<path d="M4.16666 6.66666C5.54737 6.66666 6.66666 5.54737 6.66666 4.16666C6.66666 2.78594 5.54737 1.66666 4.16666 1.66666C2.78594 1.66666 1.66666 2.78594 1.66666 4.16666C1.66666 5.54737 2.78594 6.66666 4.16666 6.66666Z" stroke="currentColor" stroke-width="1.5" stroke-linecap="round" stroke-linejoin="round"/>
<path d="M15.8333 12.5C17.2141 12.5 18.3333 11.3807 18.3333 10C18.3333 8.61929 17.2141 7.5 15.8333 7.5C14.4526 7.5 13.3333 8.61929 13.3333 10C13.3333 11.3807 14.4526 12.5 15.8333 12.5Z" stroke="currentColor" stroke-width="1.5" stroke-linecap="round" stroke-linejoin="round"/>
<path d="M4.16666 18.3333C5.54737 18.3333 6.66666 17.2141 6.66666 15.8333C6.66666 14.4526 5.54737 13.3333 4.16666 13.3333C2.78594 13.3333 1.66666 14.4526 1.66666 15.8333C1.66666 17.2141 2.78594 18.3333 4.16666 18.3333Z" stroke="currentColor" stroke-width="1.5" stroke-linecap="round" stroke-linejoin="round"/>
<path d="M13.3333 9.99999H7.49999C5.66666 9.99999 4.16666 9.16666 4.16666 6.66666V13.3333" stroke="currentColor" stroke-width="1.5" stroke-linecap="round" stroke-linejoin="round"/>
</svg>
