<svg width="17" height="16" viewBox="0 0 17 16" fill="none" xmlns="http://www.w3.org/2000/svg">
<path d="M4.34308 2.76667H12.1497C13.4002 2.76667 14.4163 3.78277 14.4163 5.03327C14.4163 5.19712 14.2804 5.33307 14.1165 5.33307H2.38312C2.21935 5.33296 2.08331 5.19706 2.08331 5.03327V5.02643L2.09503 4.79499C2.21061 3.65387 3.1709 2.76678 4.34308 2.76667Z" fill="currentColor" stroke="currentColor"/>
<path d="M2.38312 7.33333H14.1165C14.2803 7.33333 14.4162 7.46937 14.4163 7.63314V10.9671C14.4161 12.2174 13.4001 13.2337 12.1497 13.2337H4.34308C3.09266 13.2336 2.08331 12.2234 2.08331 10.973V7.63314C2.08342 7.46943 2.21941 7.33344 2.38312 7.33333ZM4.25031 10.0003C3.70083 10.0003 3.25031 10.4508 3.25031 11.0003C3.25048 11.5497 3.70094 12.0003 4.25031 12.0003H5.58331C5.93022 12.0003 6.23677 11.8198 6.41632 11.5492C6.59585 11.82 6.90327 12.0003 7.25031 12.0003H9.91632C10.4657 12.0003 10.9161 11.5497 10.9163 11.0003C10.9163 10.4508 10.4658 10.0003 9.91632 10.0003H7.25031C6.90366 10.0003 6.59593 10.1792 6.41632 10.4495C6.23668 10.1794 5.92983 10.0003 5.58331 10.0003H4.25031Z" fill="currentColor" stroke="currentColor"/>
</svg>
