<svg width="20" height="20" viewBox="0 0 20 20" fill="none" xmlns="http://www.w3.org/2000/svg">
<path d="M15 5.96667C14.95 5.95834 14.8917 5.95834 14.8417 5.96667C13.6917 5.92501 12.775 4.98334 12.775 3.81667C12.775 2.62501 13.7333 1.66667 14.925 1.66667C16.1167 1.66667 17.075 2.63334 17.075 3.81667C17.0667 4.98334 16.15 5.92501 15 5.96667Z" stroke="currentColor" stroke-width="1.5" stroke-linecap="round" stroke-linejoin="round"/>
<path d="M14.1417 12.0334C15.2833 12.225 16.5417 12.025 17.425 11.4333C18.6 10.65 18.6 9.36668 17.425 8.58335C16.5333 7.99169 15.2583 7.79168 14.1167 7.99168" stroke="currentColor" stroke-width="1.5" stroke-linecap="round" stroke-linejoin="round"/>
<path d="M4.97503 5.96667C5.02503 5.95834 5.08336 5.95834 5.13336 5.96667C6.28336 5.92501 7.20002 4.98334 7.20002 3.81667C7.20002 2.62501 6.24169 1.66667 5.05003 1.66667C3.85836 1.66667 2.90002 2.63334 2.90002 3.81667C2.90836 4.98334 3.82503 5.92501 4.97503 5.96667Z" stroke="currentColor" stroke-width="1.5" stroke-linecap="round" stroke-linejoin="round"/>
<path d="M5.83334 12.0334C4.69168 12.225 3.43335 12.025 2.55001 11.4333C1.37501 10.65 1.37501 9.36668 2.55001 8.58335C3.44168 7.99169 4.71668 7.79168 5.85834 7.99168" stroke="currentColor" stroke-width="1.5" stroke-linecap="round" stroke-linejoin="round"/>
<path d="M9.99999 12.1917C9.94999 12.1833 9.89166 12.1833 9.84166 12.1917C8.69166 12.15 7.77499 11.2083 7.77499 10.0417C7.77499 8.85 8.73333 7.89166 9.92499 7.89166C11.1167 7.89166 12.075 8.85833 12.075 10.0417C12.0667 11.2083 11.15 12.1583 9.99999 12.1917Z" stroke="currentColor" stroke-width="1.5" stroke-linecap="round" stroke-linejoin="round"/>
<path d="M7.57501 14.8167C6.40001 15.6 6.40001 16.8833 7.57501 17.6667C8.90834 18.5583 11.0917 18.5583 12.425 17.6667C13.6 16.8833 13.6 15.6 12.425 14.8167C11.1 13.9333 8.90834 13.9333 7.57501 14.8167Z" stroke="currentColor" stroke-width="1.5" stroke-linecap="round" stroke-linejoin="round"/>
</svg>
