<svg
  width="16"
  height="16"
  viewBox="0 0 16 16"
  fill="none"
  xmlns="http://www.w3.org/2000/svg"
>
  <path
    d="M8.00031 1.83333C9.37882 1.8335 10.5159 2.88482 10.6526 4.22786L10.6663 4.50032C10.6595 5.94538 9.53201 7.10986 8.09601 7.16048H8.07355C8.02164 7.15653 7.97042 7.15521 7.92218 7.15853C6.44883 7.10031 5.33348 5.93566 5.33331 4.50032C5.33331 3.0298 6.52978 1.83333 8.00031 1.83333Z"
    fill="currentColor"
    stroke="currentColor"
  />
  <path
    d="M8.00879 9.00333C9.1574 9.00342 10.2786 9.2952 11.1094 9.84904C11.7994 10.309 12.1439 10.883 12.1885 11.4613L12.1934 11.5776C12.1919 12.1565 11.8879 12.7363 11.2412 13.2172L11.1074 13.3119C10.2733 13.8718 9.14937 14.1664 8 14.1664C6.85039 14.1664 5.72582 13.872 4.8916 13.3119L4.89062 13.311L4.75684 13.2172C4.10987 12.7409 3.80664 12.1599 3.80664 11.5863C3.80676 10.974 4.15197 10.347 4.89746 9.84806C5.73559 9.29403 6.86106 9.00333 8.00879 9.00333Z"
    fill="currentColor"
    stroke="currentColor"
  />
</svg>
