<svg width="80" height="80" viewBox="0 0 80 80" fill="none" xmlns="http://www.w3.org/2000/svg">
<rect width="80" height="80" rx="16" fill="var(--primary-100)"/>
<path d="M30.2336 26.9165H49.7502C52.8764 26.9167 55.4163 29.4573 55.4163 32.5835C55.4161 32.993 55.0758 33.3335 54.6663 33.3335H25.3333C24.9237 33.3335 24.5834 32.993 24.5833 32.5835V32.5669C24.5833 29.4406 27.1073 26.9165 30.2336 26.9165Z" fill="var(--primary-700, currentColor)" stroke="var(--primary-700, currentColor)" stroke-width="2.5"/>
<path d="M23.3333 39.084V47.434C23.3333 51.2506 26.4166 54.334 30.2333 54.334H49.7499C53.5666 54.334 56.6666 51.234 56.6666 47.4173V39.084C56.6666 37.984 55.7666 37.084 54.6666 37.084H25.3333C24.2333 37.084 23.3333 37.984 23.3333 39.084ZM33.3333 48.7507H29.9999C29.3166 48.7507 28.7499 48.184 28.7499 47.5007C28.7499 46.8173 29.3166 46.2507 29.9999 46.2507H33.3333C34.0166 46.2507 34.5833 46.8173 34.5833 47.5007C34.5833 48.184 34.0166 48.7507 33.3333 48.7507ZM44.1666 48.7507H37.4999C36.8166 48.7507 36.2499 48.184 36.2499 47.5007C36.2499 46.8173 36.8166 46.2507 37.4999 46.2507H44.1666C44.8499 46.2507 45.4166 46.8173 45.4166 47.5007C45.4166 48.184 44.8499 48.7507 44.1666 48.7507Z" fill="var(--primary-700, currentColor)"/>
</svg>
