<svg width="16" height="16" viewBox="0 0 16 16" fill="none" xmlns="http://www.w3.org/2000/svg">
<path d="M15.4809 2.62694C15.3771 2.52234 15.2537 2.43934 15.1178 2.38267C14.9818 2.32607 14.836 2.29688 14.6887 2.29688C14.5413 2.29688 14.3956 2.32607 14.2596 2.38267C14.1237 2.43934 14.0003 2.52234 13.8965 2.62694L5.58454 10.9501L2.09234 7.44681C1.98467 7.34281 1.85754 7.26094 1.71821 7.20601C1.57894 7.15114 1.43014 7.12427 1.28047 7.12681C1.13074 7.12947 0.983006 7.16154 0.845673 7.22121C0.708406 7.28087 0.584139 7.36701 0.480139 7.47467C0.376073 7.58234 0.294339 7.70954 0.239406 7.84881C0.184539 7.98814 0.157606 8.13688 0.160206 8.28661C0.162739 8.43634 0.194806 8.58401 0.254473 8.72128C0.314206 8.85861 0.400339 8.98287 0.508006 9.08687L4.79234 13.3712C4.89607 13.4757 5.01947 13.5588 5.15541 13.6155C5.29141 13.6721 5.43721 13.7013 5.58447 13.7013C5.73181 13.7013 5.87761 13.6721 6.01361 13.6155C6.14947 13.5587 6.27287 13.4757 6.37667 13.3712L15.4809 4.26701C15.5941 4.16254 15.6845 4.03574 15.7463 3.89461C15.8081 3.75347 15.84 3.60107 15.84 3.44694C15.84 3.29281 15.8081 3.14047 15.7463 2.99934C15.6845 2.85821 15.5941 2.73141 15.4809 2.62694Z" fill="#525252"/>
</svg>
