<svg width="20" height="20" viewBox="0 0 20 20" fill="none" xmlns="http://www.w3.org/2000/svg">
<path d="M14.0508 4.85327L14.1201 4.88354C15.8283 6.07216 16.9304 7.92883 17.1602 9.98218V10.0232C17.151 10.1111 17.0831 10.1806 16.998 10.1921H16.9668L16.8994 10.1794C16.8367 10.1549 16.7894 10.0962 16.7812 10.0222V10.0212L16.7314 9.65796C16.4349 7.851 15.419 6.24 13.9043 5.19116H13.9053C13.8195 5.13136 13.7984 5.0169 13.8584 4.93042C13.9032 4.86607 13.9792 4.83783 14.0508 4.85327Z" fill="var(--primary-500, currentColor)" stroke="var(--primary-500, currentColor)" stroke-width="0.833333"/>
<path d="M5.92676 4.91333C5.99313 4.86569 6.09602 4.87316 6.16113 4.93188L6.18652 4.96021C6.24316 5.04718 6.22072 5.16104 6.1416 5.21899C4.5466 6.35337 3.50674 8.10978 3.31055 10.0559C3.29977 10.1583 3.21419 10.2334 3.11719 10.2336H3.09375C2.99666 10.2205 2.92212 10.1316 2.93164 10.0266C3.14425 7.97142 4.23024 6.11267 5.92383 4.91528L5.92676 4.91333Z" fill="var(--primary-500, currentColor)" stroke="var(--primary-500, currentColor)" stroke-width="0.833333"/>
<path d="M6.74707 16.895H6.74805L6.75195 16.8862C6.78767 16.811 6.89504 16.7606 7.00195 16.8091C7.56157 17.0924 8.15435 17.2853 8.75293 17.3999V17.4009C9.56941 17.5606 10.4047 17.5693 11.2217 17.4272H11.2227C11.8216 17.3215 12.4136 17.1354 12.9648 16.8696L12.9658 16.8706C13.0894 16.8139 13.189 16.8743 13.2178 16.9409L13.2217 16.9507L13.2275 16.9614C13.278 17.0624 13.2335 17.1665 13.1514 17.2046H13.1504L13.1445 17.2075C12.1761 17.672 11.1378 17.9087 10.0498 17.9087C8.9137 17.9087 7.83679 17.6562 6.83008 17.145L6.81934 17.1401L6.76855 17.1011C6.72567 17.0514 6.70852 16.9725 6.74707 16.895Z" fill="var(--primary-500, currentColor)" stroke="var(--primary-500, currentColor)" stroke-width="0.833333"/>
<path d="M10.0415 2.09204C11.1113 2.09204 11.9749 2.95496 11.9751 4.02466C11.9751 5.09454 11.1114 5.95825 10.0415 5.95825C8.9718 5.95804 8.10889 5.09441 8.10889 4.02466C8.1091 2.95605 8.9793 2.09225 10.0415 2.09204Z" fill="var(--primary-500, currentColor)" stroke="var(--primary-500, currentColor)" stroke-width="0.833333"/>
<path d="M4.2084 11.5583C2.91673 11.5583 1.8584 12.6084 1.8584 13.9083C1.8584 15.2083 2.9084 16.2583 4.2084 16.2583C5.5084 16.2583 6.5584 15.2083 6.5584 13.9083C6.5584 12.6084 5.50007 11.5583 4.2084 11.5583Z" fill="var(--primary-500, currentColor)"/>
<path d="M15.7915 11.9753C16.8613 11.9753 17.7249 12.8383 17.7251 13.908C17.7251 14.9778 16.8614 15.8416 15.7915 15.8416C14.7218 15.8413 13.8589 14.9777 13.8589 13.908C13.8591 12.8394 14.7293 11.9756 15.7915 11.9753Z" fill="var(--primary-500, currentColor)" stroke="var(--primary-500, currentColor)" stroke-width="0.833333"/>
</svg>
