<svg width="32" height="32" viewBox="0 0 32 32" fill="none" xmlns="http://www.w3.org/2000/svg">
<rect width="32" height="32" rx="6.4" fill="var(--primary-100)"/>
<path d="M16.0003 9.8335C19.3973 9.83367 22.1663 12.6034 22.1663 16.0005C22.1661 19.3974 19.3972 22.1663 16.0003 22.1665C12.6032 22.1665 9.83349 19.3975 9.83331 16.0005C9.83331 12.6033 12.6031 9.8335 16.0003 9.8335ZM19.5403 13.4067C19.1517 13.0181 18.5149 13.0181 18.1263 13.4067L15.053 16.48L13.8734 15.3003L13.7982 15.2319C13.4327 14.9341 12.901 14.9342 12.5355 15.2319L12.4593 15.3003C12.0712 15.6888 12.0712 16.3249 12.4593 16.7134L14.346 18.6001C14.532 18.7861 14.7857 18.893 15.053 18.8931C15.3205 18.8931 15.574 18.7861 15.7601 18.6001L19.5403 14.8208L19.5462 14.814C19.9234 14.4235 19.932 13.7985 19.5403 13.4067Z" fill="var(--primary-700, currentColor)" stroke="var(--primary-700, currentColor)"/>
</svg>
