<svg width="80" height="80" viewBox="0 0 80 80" fill="none" xmlns="http://www.w3.org/2000/svg">
<rect width="80" height="80" rx="16" fill="var(--primary-100)"/>
<g clip-path="url(#clip0_21178_2439)">
<path d="M47.5 40C47.5 41.7344 47.4062 43.4062 47.2422 45H32.7578C32.5859 43.4062 32.5 41.7344 32.5 40C32.5 38.2656 32.5938 36.5938 32.7578 35H47.2422C47.4141 36.5938 47.5 38.2656 47.5 40ZM49.75 35H59.3672C59.7812 36.6016 60 38.2734 60 40C60 41.7266 59.7812 43.3984 59.3672 45H49.75C49.9141 43.3906 50 41.7188 50 40C50 38.2812 49.9141 36.6094 49.75 35ZM58.5469 32.5H49.4297C48.6484 27.5078 47.1016 23.3281 45.1094 20.6562C51.2266 22.2734 56.2031 26.7109 58.5391 32.5H58.5469ZM46.8984 32.5H33.1016C33.5781 29.6562 34.3125 27.1406 35.2109 25.1016C36.0312 23.2578 36.9453 21.9219 37.8281 21.0781C38.7031 20.25 39.4297 20 40 20C40.5703 20 41.2969 20.25 42.1719 21.0781C43.0547 21.9219 43.9688 23.2578 44.7891 25.1016C45.6953 27.1328 46.4219 29.6484 46.8984 32.5ZM30.5703 32.5H21.4531C23.7969 26.7109 28.7656 22.2734 34.8906 20.6562C32.8984 23.3281 31.3516 27.5078 30.5703 32.5ZM20.6328 35H30.25C30.0859 36.6094 30 38.2812 30 40C30 41.7188 30.0859 43.3906 30.25 45H20.6328C20.2188 43.3984 20 41.7266 20 40C20 38.2734 20.2188 36.6016 20.6328 35ZM35.2109 54.8906C34.3047 52.8594 33.5781 50.3438 33.1016 47.5H46.8984C46.4219 50.3438 45.6875 52.8594 44.7891 54.8906C43.9688 56.7344 43.0547 58.0703 42.1719 58.9141C41.2969 59.75 40.5703 60 40 60C39.4297 60 38.7031 59.75 37.8281 58.9219C36.9453 58.0781 36.0312 56.7422 35.2109 54.8984V54.8906ZM30.5703 47.5C31.3516 52.4922 32.8984 56.6719 34.8906 59.3438C28.7656 57.7266 23.7969 53.2891 21.4531 47.5H30.5703ZM58.5469 47.5C56.2031 53.2891 51.2344 57.7266 45.1172 59.3438C47.1094 56.6719 48.6484 52.4922 49.4375 47.5H58.5469Z" fill="var(--primary-700, currentColor)"/>
</g>
<defs>
<clipPath id="clip0_21178_2439">
<rect width="40" height="40" fill="white" transform="translate(20 20)"/>
</clipPath>
</defs>
</svg>
