<svg width="80" height="80" viewBox="0 0 80 80" fill="none" xmlns="http://www.w3.org/2000/svg">
<rect width="80" height="80" rx="16" fill="var(--primary-100)"/>
<path d="M26.6885 24.9457C25.6167 26.0415 25.6167 27.2918 26.6885 28.3876C27.3193 29.0325 28.2933 29.6706 29.5949 30.2334C32.194 31.3573 35.8718 32.0834 39.9999 32.0834C44.1281 32.0834 47.8059 31.3573 50.405 30.2334C51.7066 29.6706 52.6806 29.0325 53.3114 28.3876C54.3831 27.2918 54.3831 26.0415 53.3114 24.9457C52.6806 24.3008 51.7066 23.6628 50.4051 23.0999C47.8061 21.976 44.1282 21.25 40.0001 21.25C35.872 21.25 32.1941 21.976 29.595 23.0999C28.2934 23.6628 27.3193 24.3008 26.6885 24.9457Z" fill="var(--primary-700, currentColor)"/>
<path fill-rule="evenodd" clip-rule="evenodd" d="M23.3311 26.6677L23.3335 26.6287L23.3333 26.6666C23.3333 28.0058 23.9662 29.1797 24.9012 30.1356C25.8307 31.0859 27.1143 31.8845 28.6026 32.528C31.5833 33.817 35.6137 34.5833 39.9999 34.5834C44.3861 34.5834 48.4165 33.817 51.3972 32.528C52.8855 31.8845 54.1691 31.086 55.0985 30.1356C56.0335 29.1797 56.6667 27.9727 56.6667 26.6335C56.6667 26.6335 56.7212 27.5822 56.73 27.7456C56.7693 28.479 56.8216 29.5256 56.8739 30.7813C56.963 32.9196 57.0523 35.6694 57.0768 38.5127C56.97 39.9821 55.5529 41.6759 52.4464 43.0879C49.3255 44.5065 44.9262 45.4166 40 45.4166C35.0738 45.4166 30.6745 44.5065 27.5536 43.0879C24.4472 41.6759 23.03 39.9821 22.9232 38.5128C22.9477 35.6694 23.0371 32.9195 23.1262 30.7813C23.1785 29.5256 23.2309 28.479 23.2702 27.7456C23.2898 27.3789 23.3062 27.0905 23.3177 26.8933C23.3235 26.7947 23.328 26.719 23.3311 26.6677ZM27.0834 38.3333C27.0834 37.4128 27.8296 36.6666 28.75 36.6666C29.6705 36.6666 30.4167 37.4128 30.4167 38.3333C30.4167 39.2538 29.6705 40 28.75 40C27.8296 40 27.0834 39.2538 27.0834 38.3333ZM34.1667 41.4583C35.0872 41.4583 35.8334 40.7121 35.8334 39.7916C35.8334 38.8711 35.0872 38.125 34.1667 38.125C33.2462 38.125 32.5 38.8711 32.5 39.7916C32.5 40.7121 33.2462 41.4583 34.1667 41.4583Z" fill="var(--primary-700, currentColor)"/>
<path fill-rule="evenodd" clip-rule="evenodd" d="M23.1269 47.9863C23.0569 46.7248 22.9869 45.093 22.948 43.1523C23.9482 44.0148 25.1793 44.755 26.5191 45.364C30.0336 46.9615 34.801 47.9168 40.0001 47.9168C45.1991 47.9168 49.9665 46.9615 53.4809 45.364C54.8207 44.755 56.0519 44.0148 57.0521 43.1523C57.0131 45.093 56.9431 46.7248 56.8731 47.9863C56.8205 48.9339 56.7677 49.6728 56.7279 50.1768C56.7081 50.4287 56.6914 50.6219 56.6796 50.7533L56.6756 50.7976L56.6662 50.8989C56.646 52.2109 56.0186 53.3623 55.0988 54.3026C54.1693 55.2528 52.8856 56.0513 51.3974 56.6949C48.4167 57.9838 44.3862 58.7503 40.0001 58.7503C35.6138 58.7502 31.5833 57.9838 28.6026 56.6949C27.1144 56.0513 25.8307 55.2528 24.9013 54.3026C23.9815 53.3623 23.3541 52.2109 23.3339 50.8989C23.3306 50.8648 23.3261 50.8162 23.3204 50.7533C23.3087 50.6219 23.292 50.4287 23.2721 50.1768C23.2323 49.6728 23.1796 48.9339 23.1269 47.9863ZM28.7501 52.9168C29.6706 52.9168 30.4167 52.1707 30.4167 51.2502C30.4167 50.3297 29.6706 49.5835 28.7501 49.5835C27.8296 49.5835 27.0834 50.3297 27.0834 51.2502C27.0834 52.1707 27.8296 52.9168 28.7501 52.9168ZM34.1667 54.3752C35.0872 54.3752 35.8334 53.629 35.8334 52.7085C35.8334 51.788 35.0872 51.0418 34.1667 51.0418C33.2462 51.0418 32.5001 51.788 32.5001 52.7085C32.5001 53.629 33.2462 54.3752 34.1667 54.3752Z" fill="var(--primary-700, currentColor)"/>
</svg>
