<svg width="24" height="28" viewBox="0 0 24 28" fill="none" xmlns="http://www.w3.org/2000/svg">
<path fill-rule="evenodd" clip-rule="evenodd" d="M6.84995 8.787C8.73095 7.44 10.9579 7 12.4559 7H13.4609C13.7262 7 13.9805 7.10536 14.1681 7.29289C14.3556 7.48043 14.4609 7.73478 14.4609 8V11H16.4749C16.7402 11 16.9945 11.1054 17.1821 11.2929C17.3696 11.4804 17.4749 11.7348 17.4749 12V14H20.4939C20.7592 14 21.0135 14.1054 21.2011 14.2929C21.3886 14.4804 21.4939 14.7348 21.4939 15V16C21.4939 19.503 20.0989 21.808 18.1969 23.206C16.3469 24.566 14.1099 25 12.4569 25C10.8029 25 8.56695 24.566 6.71494 23.206C4.81394 21.808 3.41895 19.503 3.41895 16C3.41895 12.472 4.91895 10.172 6.84995 8.787ZM9.44195 11C9.31062 11 9.18059 11.0259 9.05926 11.0761C8.93794 11.1264 8.8277 11.2 8.73484 11.2929C8.64198 11.3858 8.56832 11.496 8.51807 11.6173C8.46781 11.7386 8.44195 11.8687 8.44195 12C8.44195 12.1313 8.46781 12.2614 8.51807 12.3827C8.56832 12.504 8.64198 12.6142 8.73484 12.7071C8.8277 12.8 8.93794 12.8736 9.05926 12.9239C9.18059 12.9741 9.31062 13 9.44195 13C9.70716 13 9.96252 12.8946 10.1501 12.7071C10.3376 12.5196 10.4429 12.2652 10.4429 12C10.4429 11.7348 10.3376 11.4804 10.1501 11.2929C9.96252 11.1054 9.70716 11 9.44195 11ZM6.43195 16C6.43195 15.7348 6.5373 15.4804 6.72484 15.2929C6.91237 15.1054 7.16673 15 7.43195 15H7.43395C7.69916 15 7.95352 15.1054 8.14105 15.2929C8.32859 15.4804 8.43395 15.7348 8.43395 16C8.43395 16.2652 8.32859 16.5196 8.14105 16.7071C7.95352 16.8946 7.69916 17 7.43395 17C7.30262 17 7.17159 16.9741 7.05026 16.9239C6.92894 16.8736 6.8187 16.8 6.72584 16.7071C6.63298 16.6142 6.55932 16.504 6.50907 16.3827C6.45881 16.2614 6.43195 16.1313 6.43195 16ZM12.4559 16C12.1907 16 11.9364 16.1054 11.7488 16.2929C11.5613 16.4804 11.4559 16.7348 11.4559 17C11.4559 17.2652 11.5613 17.5196 11.7488 17.7071C11.9364 17.8946 12.1907 18 12.4559 18C12.7212 18 12.9765 17.8946 13.1641 17.7071C13.3516 17.5196 13.4569 17.2652 13.4569 17C13.4569 16.7348 13.3516 16.4804 13.1641 16.2929C12.9765 16.1054 12.7212 16 12.4559 16ZM9.44594 20C9.44594 19.7348 9.5513 19.4804 9.73884 19.2929C9.92638 19.1054 10.1807 19 10.4459 19H10.4479C10.7132 19 10.9675 19.1054 11.1551 19.2929C11.3426 19.4804 11.4479 19.7348 11.4479 20C11.4479 20.2652 11.3426 20.5196 11.1551 20.7071C10.9675 20.8946 10.7132 21 10.4479 21C10.1827 21 9.92738 20.8946 9.73984 20.7071C9.5523 20.5196 9.44594 20.2652 9.44594 20ZM16.4749 18C16.2097 18 15.9554 18.1054 15.7678 18.2929C15.5803 18.4804 15.4749 18.7348 15.4749 19C15.4749 19.2652 15.5803 19.5196 15.7678 19.7071C15.9554 19.8946 16.2097 20 16.4749 20C16.7402 20 16.9945 19.8946 17.1821 19.7071C17.3696 19.5196 17.4749 19.2652 17.4749 19C17.4749 18.7348 17.3696 18.4804 17.1821 18.2929C16.9945 18.1054 16.7402 18 16.4749 18Z" fill="var(--primary-400)"/>
</svg>
