<svg width="32" height="32" viewBox="0 0 32 32" fill="none" xmlns="http://www.w3.org/2000/svg">
<path d="M9.2002 11.3336H14.8008C17.0681 11.3337 18.482 11.7912 19.3457 12.6549C20.2094 13.5187 20.667 14.9325 20.667 17.1998V22.8004C20.6669 25.0677 20.2095 26.4816 19.3457 27.3453C18.482 28.2091 17.0681 28.6666 14.8008 28.6666H9.2002C6.93283 28.6666 5.51908 28.209 4.65527 27.3453C3.79153 26.4816 3.33405 25.0677 3.33398 22.8004V17.1998C3.334 14.9323 3.79148 13.5187 4.65527 12.6549C5.51906 11.7911 6.93269 11.3336 9.2002 11.3336Z" fill="var(--primary-500, currentColor)" stroke="var(--primary-500, currentColor)" stroke-width="1.33333"/>
<path d="M17.1992 3.33362H22.7998C25.0673 3.33363 26.4809 3.79112 27.3447 4.65491C28.2085 5.5187 28.666 6.93233 28.666 9.19983V14.8004C28.666 16.7951 28.309 18.129 27.6348 19.0045C26.9768 19.8588 25.9282 20.3891 24.2725 20.5778C23.9778 20.6113 23.666 20.3643 23.666 19.9703V17.1998C23.666 14.3096 22.9959 12.0541 21.4707 10.5289C19.9456 9.00378 17.6901 8.33364 14.7998 8.33362H12.0293C11.6353 8.33362 11.3883 8.02184 11.4219 7.72717C11.6105 6.07148 12.1408 5.02279 12.9951 4.36487C13.8707 3.69063 15.2046 3.33367 17.1992 3.33362Z" fill="var(--primary-500, currentColor)" stroke="var(--primary-500, currentColor)" stroke-width="1.33333"/>
</svg>
