<svg width="80" height="80" viewBox="0 0 80 80" fill="none" xmlns="http://www.w3.org/2000/svg">
<rect width="80" height="80" rx="16" fill="var(--primary-100)"/>
<path d="M48.3333 25.8335H31.6667C26.6667 25.8335 23.3333 28.3335 23.3333 34.1668V45.8335C23.3333 51.6668 26.6667 54.1668 31.6667 54.1668H48.3333C53.3333 54.1668 56.6667 51.6668 56.6667 45.8335V34.1668C56.6667 28.3335 53.3333 25.8335 48.3333 25.8335ZM49.1167 35.9835L43.9 40.1502C42.8 41.0335 41.4 41.4668 40 41.4668C38.6 41.4668 37.1833 41.0335 36.1 40.1502L30.8833 35.9835C30.35 35.5502 30.2667 34.7502 30.6833 34.2168C31.1167 33.6835 31.9 33.5835 32.4333 34.0168L37.65 38.1835C38.9167 39.2002 41.0667 39.2002 42.3333 38.1835L47.55 34.0168C48.0833 33.5835 48.8833 33.6668 49.3 34.2168C49.7333 34.7502 49.65 35.5502 49.1167 35.9835Z" fill="var(--primary-700, currentColor)"/>
</svg>
