<svg width="36" height="36" viewBox="0 0 36 36" fill="none" xmlns="http://www.w3.org/2000/svg">
<path d="M22.129 34.8339C22.1343 34.7841 22.137 34.7335 22.137 34.6823V22.5297H26.2912C26.9573 22.5297 27.5568 22.0911 27.6542 21.4322C27.8152 20.3422 27.7468 19.3511 27.6426 18.6463C27.547 17.9993 26.9704 17.5734 26.3164 17.5734H22.137C22.137 13.8283 22.7603 13.2833 26.2732 13.2151C26.9472 13.2021 27.5523 12.7571 27.6501 12.09C27.8146 10.9688 27.749 9.9891 27.6458 9.29992C27.5505 8.66333 26.9797 8.24835 26.336 8.25397C20.1272 8.30812 16.591 9.04222 16.591 17.5734H13.3744C12.7493 17.5734 12.1943 17.9652 12.0997 18.5831C11.9978 19.2489 11.9363 20.2139 12.1063 21.3877C12.2045 22.0658 12.8144 22.5297 13.4996 22.5297H16.591V34.8704C11.7835 34.8389 8.3424 34.6491 6.10178 34.4671C3.63589 34.2668 1.73326 32.3641 1.53292 29.8982C1.33356 27.4445 1.125 23.5511 1.125 18C1.125 12.4489 1.33356 8.55548 1.53292 6.10178C1.73326 3.63588 3.63589 1.73326 6.10178 1.53292C8.55547 1.33355 12.4489 1.125 18 1.125C23.5511 1.125 27.4445 1.33356 29.8982 1.53292C32.3641 1.73326 34.2668 3.63589 34.4671 6.10178C34.6664 8.55548 34.875 12.4489 34.875 18C34.875 23.5511 34.6664 27.4445 34.4671 29.8982C34.2668 32.3641 32.3641 34.2668 29.8982 34.4671C28.1054 34.6127 25.544 34.7633 22.129 34.8339Z" fill="var(--primary-500, currentColor)"/>
</svg>
