<svg xmlns="http://www.w3.org/2000/svg" viewBox="0 0 520 96" role="img" aria-label="GitHub">
  <style>
    :root { --ink: #181717; } /* GitHub black for light */
    @media (prefers-color-scheme: dark) {
      :root { --ink: #ffffff; }
    }
  </style>

  <!-- mark (auto theme) -->
  <path
    fill="var(--ink)"
    transform="translate(0,8) scale(4.5)"
    d="M8 0C3.6 0 0 3.7 0 8.3c0 3.7 2.3 6.8 5.5 7.9.4.1.5-.2.5-.4v-1.4c-2.2.5-2.7-1-2.7-1-.4-1-.9-1.3-.9-1.3-.8-.6.1-.6.1-.6.9.1 1.4 1 1.4 1 .8 1.4 2.2 1 2.7.8.1-.6.3-1 .6-1.2-1.8-.2-3.7-.9-3.7-4 0-.9.3-1.6.8-2.2-.1-.2-.4-1 .1-2.1 0 0 .7-.2 2.3.8.7-.2 1.4-.3 2.1-.3s1.4.1 2.1.3c1.6-1 2.3-.8 2.3-.8.5 1.1.2 1.9.1 2.1.5.6.8 1.3.8 2.2 0 3.1-1.9 3.8-3.7 4 .3.3.6.8.6 1.6v2.3c0 .2.1.5.5.4C13.7 15.1 16 12 16 8.3 16 3.7 12.4 0 8 0z"
  />

  <!-- word (auto theme) -->
  <text
    x="96"
    y="62"
    fill="var(--ink)"
    font-family="ui-sans-serif, system-ui, -apple-system, Segoe UI, Roboto, Helvetica, Arial"
    font-size="44"
    font-weight="600"
    letter-spacing="-0.5"
  >
    GitHub
  </text>
</svg>
