<svg xmlns="http://www.w3.org/2000/svg" viewBox="0 0 533.5 544.3" aria-label="Google">
  <path fill="#4285F4" d="M533.5 278.4c0-17.4-1.6-34.1-4.6-50.3H272v95.2h147.3c-6.4 34.5-25.9 63.7-55.1 83.2v68h89.1c52.1-48 80.2-118.8 80.2-196.1z"/>
  <path fill="#34A853" d="M272 544.3c74.7 0 137.3-24.8 183.1-67.5l-89.1-68c-24.8 16.6-56.5 26.4-94 26.4-72.3 0-133.6-48.8-155.4-114.3H25.6v71.8C71.1 475.1 165.3 544.3 272 544.3z"/>
  <path fill="#FBBC05" d="M116.6 320.9c-10.4-30.9-10.4-64.4 0-95.3V153.8H25.6c-43.2 86.1-43.2 188.6 0 274.7l91-71.6z"/>
  <path fill="#EA4335" d="M272 107.7c40.6-.6 79.8 14.2 109.9 41.5l82.1-82.1C414.2 24.7 345.8-1.1 272 0 165.3 0 71.1 69.2 25.6 153.8l91 71.8C138.4 156.5 199.7 107.7 272 107.7z"/>
</svg>
