<svg width="24" height="24" viewBox="0 0 24 24" fill="none" xmlns="http://www.w3.org/2000/svg">
<g clip-path="url(#clip0_21126_11926)">
<path fill-rule="evenodd" clip-rule="evenodd" d="M0 5.8296C0 4.28349 0.614188 2.80071 1.70745 1.70745C2.80071 0.614189 4.28349 4.94076e-07 5.8296 4.94076e-07H18.168C18.9338 -0.000314762 19.6921 0.15024 20.3996 0.443063C21.1072 0.735887 21.7501 1.16524 22.2917 1.7066C22.8333 2.24796 23.2629 2.89072 23.556 3.59815C23.8491 4.30559 24 5.06384 24 5.8296V18.168C24.0003 18.9338 23.8498 19.6921 23.5569 20.3996C23.2641 21.1072 22.8348 21.7501 22.2934 22.2917C21.752 22.8333 21.1093 23.2629 20.4018 23.556C19.6944 23.8491 18.9362 24 18.1704 24H5.832C5.06624 24.0003 4.30793 23.8498 3.60037 23.5569C2.89281 23.2641 2.24988 22.8348 1.7083 22.2934C1.16672 21.752 0.737096 21.1093 0.443981 20.4018C0.150866 19.6944 -6.48941e-08 18.9362 0 18.1704L0 5.832V5.8296ZM20.1192 4.9368C20.1191 5.03802 20.1062 5.13882 20.0808 5.2368C20.1266 5.4141 20.1312 5.59953 20.0942 5.77888C20.0573 5.95823 19.9798 6.12675 19.8677 6.27153C19.7556 6.41631 19.6118 6.53351 19.4474 6.61416C19.283 6.6948 19.1023 6.73676 18.9192 6.7368C18.5214 6.7368 18.1398 6.57877 17.8585 6.29746C17.5772 6.01616 17.4192 5.63463 17.4192 5.2368C17.4192 4.83898 17.5772 4.45744 17.8585 4.17614C18.1398 3.89484 18.5214 3.7368 18.9192 3.7368C19.2375 3.7368 19.5427 3.86323 19.7677 4.08827C19.9928 4.31332 20.1192 4.61854 20.1192 4.9368ZM12 6.2136C10.4654 6.2136 8.99356 6.82324 7.9084 7.9084C6.82324 8.99356 6.2136 10.4654 6.2136 12C6.2136 13.5346 6.82324 15.0064 7.9084 16.0916C8.99356 17.1768 10.4654 17.7864 12 17.7864C13.5346 17.7864 15.0064 17.1768 16.0916 16.0916C17.1768 15.0064 17.7864 13.5346 17.7864 12C17.7864 10.4654 17.1768 8.99356 16.0916 7.9084C15.0064 6.82324 13.5346 6.2136 12 6.2136Z" fill="var(--accent-foreground)"/>
</g>
<defs>
<clipPath id="clip0_21126_11926">
<rect width="24" height="24" fill="white"/>
</clipPath>
</defs>
</svg>
