<svg width="36" height="36" viewBox="0 0 36 36" fill="none" xmlns="http://www.w3.org/2000/svg">
<path fill-rule="evenodd" clip-rule="evenodd" d="M8.7169 2.02148C5.01913 2.02148 2.02148 5.01912 2.02148 8.71692V26.5714C2.02148 30.2691 5.01913 33.2669 8.7169 33.2669H26.5714C30.2691 33.2669 33.2667 30.2691 33.2667 26.5714V8.71692C33.2667 5.01912 30.2691 2.02148 26.5714 2.02148H8.7169ZM28.4987 8.72661C28.4987 9.79172 27.6352 10.6552 26.5701 10.6552C25.505 10.6552 24.6415 9.79172 24.6415 8.72661C24.6415 7.66147 25.505 6.79804 26.5701 6.79804C27.6352 6.79804 28.4987 7.66147 28.4987 8.72661ZM17.6445 12.2953C14.6905 12.2953 12.2957 14.69 12.2957 17.644C12.2957 20.598 14.6905 22.9927 17.6445 22.9927C20.5985 22.9927 22.9932 20.598 22.9932 17.644C22.9932 14.69 20.5985 12.2953 17.6445 12.2953ZM9.7243 17.644C9.7243 13.2698 13.2703 9.72384 17.6445 9.72384C22.0186 9.72384 25.5646 13.2698 25.5646 17.644C25.5646 22.0182 22.0186 25.5641 17.6445 25.5641C13.2703 25.5641 9.7243 22.0182 9.7243 17.644Z" fill="var(--primary-500, currentColor)"/>
</svg>
