<svg width="36" height="36" viewBox="0 0 36 36" fill="none" xmlns="http://www.w3.org/2000/svg">
<path fill-rule="evenodd" clip-rule="evenodd" d="M7.5 1.5C5.9087 1.5 4.38258 2.13214 3.25736 3.25736C2.13214 4.38258 1.5 5.9087 1.5 7.5V28.5C1.5 30.0913 2.13214 31.6174 3.25736 32.7426C4.38258 33.8679 5.9087 34.5 7.5 34.5H28.5C30.0913 34.5 31.6174 33.8679 32.7426 32.7426C33.8679 31.6174 34.5 30.0913 34.5 28.5V7.5C34.5 5.9087 33.8679 4.38258 32.7426 3.25736C31.6174 2.13214 30.0913 1.5 28.5 1.5H7.5ZM9.3075 11.865C9.98579 11.865 10.6363 11.5955 11.1159 11.1159C11.5955 10.6363 11.865 9.98579 11.865 9.3075C11.865 8.62921 11.5955 7.9787 11.1159 7.49907C10.6363 7.01945 9.98579 6.75 9.3075 6.75C8.62921 6.75 7.9787 7.01945 7.49907 7.49907C7.01945 7.9787 6.75 8.62921 6.75 9.3075C6.75 9.98579 7.01945 10.6363 7.49907 11.1159C7.9787 11.5955 8.62921 11.865 9.3075 11.865ZM11.8635 29.25V13.9095H6.75V29.25H11.8635ZM18.5115 13.9095H13.9095V29.25H18.5115V19.995C19.104 19.032 20.127 18 21.579 18C23.625 18 24.1365 20.046 24.1365 21.069V29.25H29.25V21.069C29.25 18.327 28.0545 13.9095 23.625 13.9095C20.808 13.9095 19.245 14.937 18.51 15.9L18.5115 13.9095Z" fill="var(--primary-500, currentColor)"/>
</svg>
