<svg width="64" height="64" viewBox="0 0 64 64" fill="none" xmlns="http://www.w3.org/2000/svg">
<rect width="64" height="64" rx="16" fill="var(--primary-100)"/>
<path d="M40.334 17.8334H23.6673C18.6673 17.8334 15.334 20.3334 15.334 26.1667V37.8334C15.334 43.6667 18.6673 46.1667 23.6673 46.1667H40.334C45.334 46.1667 48.6673 43.6667 48.6673 37.8334V26.1667C48.6673 20.3334 45.334 17.8334 40.334 17.8334ZM41.1173 27.9834L35.9007 32.15C34.8007 33.0334 33.4007 33.4667 32.0007 33.4667C30.6007 33.4667 29.184 33.0334 28.1007 32.15L22.884 27.9834C22.3507 27.55 22.2673 26.75 22.684 26.2167C23.1173 25.6834 23.9007 25.5834 24.434 26.0167L29.6507 30.1834C30.9173 31.2 33.0673 31.2 34.334 30.1834L39.5507 26.0167C40.084 25.5834 40.884 25.6667 41.3006 26.2167C41.734 26.75 41.6507 27.55 41.1173 27.9834Z" fill="var(--primary-700, currentColor)"/>
</svg>
