<svg width="80" height="80" viewBox="0 0 80 80" fill="none" xmlns="http://www.w3.org/2000/svg">
<rect width="80" height="80" rx="16" fill="var(--primary-100)"/>
<path fill-rule="evenodd" clip-rule="evenodd" d="M31.4166 27.9783C34.5516 25.7333 38.2632 25 40.7599 25H42.4349C42.8769 25 43.3009 25.1756 43.6134 25.4882C43.926 25.8007 44.1016 26.2246 44.1016 26.6667V31.6667H47.4582C47.9003 31.6667 48.3242 31.8423 48.6368 32.1548C48.9493 32.4674 49.1249 32.8913 49.1249 33.3333V36.6667H54.1566C54.5986 36.6667 55.0225 36.8423 55.3351 37.1548C55.6476 37.4674 55.8232 37.8913 55.8232 38.3333V40C55.8232 45.8383 53.4982 49.68 50.3282 52.01C47.2449 54.2767 43.5166 55 40.7616 55C38.0049 55 34.2782 54.2767 31.1916 52.01C28.0232 49.68 25.6982 45.8383 25.6982 40C25.6982 34.12 28.1982 30.2867 31.4166 27.9783ZM35.7366 31.6667C35.5177 31.6667 35.301 31.7098 35.0988 31.7935C34.8966 31.8773 34.7128 32.0001 34.5581 32.1548C34.4033 32.3096 34.2805 32.4933 34.1968 32.6955C34.113 32.8977 34.0699 33.1145 34.0699 33.3333C34.0699 33.5522 34.113 33.7689 34.1968 33.9711C34.2805 34.1733 34.4033 34.3571 34.5581 34.5118C34.7128 34.6666 34.8966 34.7894 35.0988 34.8731C35.301 34.9569 35.5177 35 35.7366 35C36.1786 35 36.6042 34.8244 36.9168 34.5118C37.2293 34.1993 37.4049 33.7754 37.4049 33.3333C37.4049 32.8913 37.2293 32.4674 36.9168 32.1548C36.6042 31.8423 36.1786 31.6667 35.7366 31.6667ZM30.7199 40C30.7199 39.558 30.8955 39.134 31.2081 38.8215C31.5206 38.5089 31.9445 38.3333 32.3866 38.3333H32.3899C32.8319 38.3333 33.2559 38.5089 33.5684 38.8215C33.881 39.134 34.0566 39.558 34.0566 40C34.0566 40.442 33.881 40.8659 33.5684 41.1785C33.2559 41.4911 32.8319 41.6667 32.3899 41.6667C32.171 41.6667 31.9526 41.6236 31.7504 41.5398C31.5482 41.456 31.3645 41.3333 31.2097 41.1785C31.055 41.0237 30.9322 40.84 30.8484 40.6378C30.7647 40.4356 30.7199 40.2189 30.7199 40ZM40.7599 40C40.3179 40 39.894 40.1756 39.5814 40.4882C39.2688 40.8007 39.0932 41.2246 39.0932 41.6667C39.0932 42.1087 39.2688 42.5326 39.5814 42.8452C39.894 43.1577 40.3179 43.3333 40.7599 43.3333C41.2019 43.3333 41.6275 43.1577 41.9401 42.8452C42.2526 42.5326 42.4282 42.1087 42.4282 41.6667C42.4282 41.2246 42.2526 40.8007 41.9401 40.4882C41.6275 40.1756 41.2019 40 40.7599 40ZM35.7432 46.6667C35.7432 46.2246 35.9188 45.8007 36.2314 45.4882C36.544 45.1756 36.9679 45 37.4099 45H37.4132C37.8553 45 38.2792 45.1756 38.5918 45.4882C38.9043 45.8007 39.0799 46.2246 39.0799 46.6667C39.0799 47.1087 38.9043 47.5326 38.5918 47.8452C38.2792 48.1577 37.8553 48.3333 37.4132 48.3333C36.9712 48.3333 36.5456 48.1577 36.2331 47.8452C35.9205 47.5326 35.7432 47.1087 35.7432 46.6667ZM47.4582 43.3333C47.0162 43.3333 46.5923 43.5089 46.2797 43.8215C45.9672 44.1341 45.7916 44.558 45.7916 45C45.7916 45.442 45.9672 45.8659 46.2797 46.1785C46.5923 46.4911 47.0162 46.6667 47.4582 46.6667C47.9003 46.6667 48.3242 46.4911 48.6368 46.1785C48.9493 45.8659 49.1249 45.442 49.1249 45C49.1249 44.558 48.9493 44.1341 48.6368 43.8215C48.3242 43.5089 47.9003 43.3333 47.4582 43.3333Z" fill="var(--primary-700, currentColor)"/>
</svg>
