<svg width="80" height="80" viewBox="0 0 80 80" fill="none" xmlns="http://www.w3.org/2000/svg">
<rect width="80" height="80" rx="16" fill="var(--primary-100)"/>
<path d="M43.2788 24.6699C43.3661 24.8814 43.4497 25.2646 43.4497 25.8672V39.1172H49.8501C50.3165 39.1172 50.6101 39.1899 50.77 39.2607C50.8237 39.2846 50.8556 39.3062 50.8745 39.3203C50.8725 39.3436 50.8676 39.3813 50.8501 39.4365C50.7974 39.6028 50.6572 39.8717 50.3472 40.2217L50.3442 40.2246L39.061 53.0586L37.729 54.5742C37.3307 55.0263 37.0137 55.2595 36.8071 55.3613C36.7853 55.3721 36.7646 55.3776 36.7476 55.3848C36.74 55.3691 36.7298 55.3519 36.7212 55.3311C36.6339 55.1197 36.5503 54.7364 36.5503 54.1338V40.8838H30.1499C29.6835 40.8838 29.3899 40.8101 29.23 40.7393C29.1756 40.7151 29.1432 40.6938 29.1245 40.6797C29.1265 40.6564 29.1324 40.6186 29.1499 40.5635C29.2026 40.3972 29.3428 40.1293 29.6528 39.7793L29.6558 39.7754L40.939 26.9424L42.272 25.4258L42.271 25.4248C42.669 24.9732 42.9864 24.7415 43.1929 24.6396C43.2146 24.6289 43.2344 24.6214 43.2515 24.6143C43.2593 24.6304 43.2699 24.6483 43.2788 24.6699Z" fill="var(--primary-700, currentColor)" stroke="var(--primary-700, currentColor)" stroke-width="2.5"/>
</svg>
