<svg width="16" height="16" viewBox="0 0 16 16" fill="none" xmlns="http://www.w3.org/2000/svg">
<path d="M8.00031 1.83301C11.3973 1.83318 14.1663 4.60292 14.1663 8C14.1661 11.3969 11.3972 14.1658 8.00031 14.166C4.60322 14.166 1.83349 11.397 1.83331 8C1.83331 4.60281 4.60311 1.83301 8.00031 1.83301ZM11.5403 5.40625C11.1517 5.01765 10.5149 5.01765 10.1263 5.40625L7.05304 8.47949L5.87335 7.2998L5.79816 7.23145C5.43266 6.93364 4.90102 6.93375 4.53546 7.23145L4.45929 7.2998C4.07124 7.6883 4.07123 8.32439 4.45929 8.71289L6.34601 10.5996C6.53198 10.7856 6.78569 10.8925 7.05304 10.8926C7.32049 10.8926 7.57404 10.7856 7.76007 10.5996L11.5403 6.82031L11.5462 6.81348C11.9234 6.42306 11.932 5.79802 11.5403 5.40625Z" fill="var(--primary-700, currentColor)" stroke="var(--primary-100, currentColor)"/>
</svg>
