<svg width="36" height="36" viewBox="0 0 36 36" fill="none" xmlns="http://www.w3.org/2000/svg">
<path fill-rule="evenodd" clip-rule="evenodd" d="M7.5 1.5C4.18629 1.5 1.5 4.18629 1.5 7.5V28.5C1.5 31.8137 4.18629 34.5 7.5 34.5H28.5C31.8137 34.5 34.5 31.8137 34.5 28.5V7.5C34.5 4.18629 31.8137 1.5 28.5 1.5H7.5ZM6.99856 6.75C6.73553 6.84791 6.51359 7.04263 6.38405 7.30245C6.19371 7.6842 6.23566 8.14079 6.49239 8.48147L14.9137 19.6569L6.03979 29.1729C6.01653 29.198 5.99463 29.2236 5.97406 29.25H9.04443L16.2887 21.4815L21.8586 28.8732C21.9893 29.0464 22.1651 29.1759 22.3632 29.25H28.9967C29.2589 29.1519 29.4802 28.9575 29.6094 28.6981C29.7997 28.3164 29.7579 27.8598 29.5011 27.5191L21.0798 16.3437L30.0259 6.75H26.9494L19.7048 14.519L14.1348 7.12737C14.0039 6.95363 13.8274 6.82397 13.6285 6.75H6.99856ZM23.3181 27.0713L9.64725 8.92941H12.6754L26.3463 27.0713H23.3181Z" fill="var(--primary-500, currentColor)"/>
</svg>
