<svg width="80" height="80" viewBox="0 0 80 80" fill="none" xmlns="http://www.w3.org/2000/svg">
<rect width="80" height="80" rx="16" fill="var(--primary-100)"/>
<path d="M51.25 33.3335V36.8335C50.5167 36.7335 49.6833 36.6835 48.75 36.6668V33.3335C48.75 28.0835 47.2667 24.5835 40 24.5835C32.7333 24.5835 31.25 28.0835 31.25 33.3335V36.6668C30.3167 36.6835 29.4833 36.7335 28.75 36.8335V33.3335C28.75 28.5002 29.9167 22.0835 40 22.0835C50.0833 22.0835 51.25 28.5002 51.25 33.3335Z" fill="var(--primary-700, currentColor)"/>
<path d="M51.25 36.8332C50.5167 36.7332 49.6834 36.6832 48.75 36.6665H31.25C30.3167 36.6832 29.4834 36.7332 28.75 36.8332C24.5 37.3498 23.3334 39.4332 23.3334 44.9998V48.3332C23.3334 54.9998 25 56.6665 31.6667 56.6665H48.3334C55 56.6665 56.6667 54.9998 56.6667 48.3332V44.9998C56.6667 39.4332 55.5 37.3498 51.25 36.8332ZM34.5167 47.8498C34.2 48.1498 33.7667 48.3332 33.3334 48.3332C33.1167 48.3332 32.9 48.2832 32.7 48.1998C32.4834 48.1165 32.3167 47.9998 32.15 47.8498C31.85 47.5332 31.6667 47.0998 31.6667 46.6665C31.6667 46.4498 31.7167 46.2332 31.8 46.0332C31.8834 45.8332 32 45.6498 32.15 45.4832C32.3167 45.3332 32.4834 45.2165 32.7 45.1332C33.3167 44.8665 34.05 45.0165 34.5167 45.4832C34.6667 45.6498 34.7834 45.8332 34.8667 46.0332C34.95 46.2332 35 46.4498 35 46.6665C35 47.0998 34.8167 47.5332 34.5167 47.8498ZM41.5334 47.2998C41.45 47.4998 41.3334 47.6832 41.1834 47.8498C40.8667 48.1498 40.4334 48.3332 40 48.3332C39.55 48.3332 39.1334 48.1498 38.8167 47.8498C38.6667 47.6832 38.55 47.4998 38.4667 47.2998C38.3834 47.0998 38.3334 46.8832 38.3334 46.6665C38.3334 46.2165 38.5167 45.7998 38.8167 45.4832C39.4334 44.8665 40.55 44.8665 41.1834 45.4832C41.4834 45.7998 41.6667 46.2165 41.6667 46.6665C41.6667 46.8832 41.6167 47.0998 41.5334 47.2998ZM47.85 47.8498C47.5334 48.1498 47.1 48.3332 46.6667 48.3332C46.2334 48.3332 45.8 48.1498 45.4834 47.8498C45.1834 47.5332 45 47.1165 45 46.6665C45 46.2165 45.1834 45.7998 45.4834 45.4832C46.1167 44.8665 47.2334 44.8665 47.85 45.4832C47.9167 45.5665 47.9834 45.6498 48.05 45.7498C48.1167 45.8332 48.1667 45.9332 48.2 46.0332C48.25 46.1332 48.2834 46.2332 48.3 46.3332C48.3167 46.4498 48.3334 46.5665 48.3334 46.6665C48.3334 47.0998 48.15 47.5332 47.85 47.8498Z" fill="var(--primary-700, currentColor)"/>
</svg>
