<svg width="64" height="64" viewBox="0 0 64 64" fill="none" xmlns="http://www.w3.org/2000/svg">
<rect width="64" height="64" rx="16" fill="var(--primary-100)"/>
<path d="M32.001 16.1663C35.7852 16.1664 38.8852 19.1482 39.0752 22.886L39.084 23.2502C39.0672 27.0866 36.0706 30.1824 32.2549 30.3167H32.208C32.0677 30.3017 31.923 30.3019 31.7881 30.3137C27.8848 30.1587 24.9172 27.065 24.917 23.2502C24.917 19.3438 28.0945 16.1663 32.001 16.1663Z" fill="var(--primary-700, currentColor)" stroke="var(--primary-700, currentColor)" stroke-width="1.66667"/>
<path d="M40.4656 35.5848C35.8156 32.4848 28.2323 32.4848 23.549 35.5848C21.4323 37.0014 20.2656 38.9181 20.2656 40.9681C20.2656 43.0181 21.4323 44.9181 23.5323 46.3181C25.8656 47.8848 28.9323 48.6681 31.999 48.6681C35.0656 48.6681 38.1323 47.8848 40.4656 46.3181C42.5656 44.9014 43.7323 43.0014 43.7323 40.9348C43.7156 38.8848 42.5656 36.9848 40.4656 35.5848Z" fill="var(--primary-700, currentColor)"/>
</svg>
