<svg width="24" height="24" viewBox="0 0 24 24" fill="none" xmlns="http://www.w3.org/2000/svg">
<g clip-path="url(#clip0_21126_11924)">
<path fill-rule="evenodd" clip-rule="evenodd" d="M23.472 3.07198C23.7899 2.73076 23.963 2.27945 23.9548 1.81312C23.9466 1.3468 23.7577 0.901877 23.4279 0.572086C23.0981 0.242294 22.6532 0.0533858 22.1868 0.045158C21.7205 0.0369303 21.2692 0.210026 20.928 0.527978L12 9.45598L3.07198 0.527978C2.90719 0.35113 2.70847 0.209284 2.48767 0.110904C2.26687 0.0125229 2.02852 -0.0403775 1.78683 -0.0446417C1.54515 -0.048906 1.30508 -0.00444685 1.08094 0.0860836C0.856812 0.176614 0.653211 0.311361 0.482286 0.482286C0.311361 0.653211 0.176614 0.856812 0.0860836 1.08094C-0.00444685 1.30508 -0.048906 1.54515 -0.0446417 1.78683C-0.0403775 2.02852 0.0125229 2.26687 0.110904 2.48767C0.209284 2.70847 0.35113 2.90719 0.527978 3.07198L9.45598 12L0.527978 20.928C0.35113 21.0928 0.209284 21.2915 0.110904 21.5123C0.0125229 21.7331 -0.0403775 21.9714 -0.0446417 22.2131C-0.048906 22.4548 -0.00444685 22.6949 0.0860836 22.919C0.176614 23.1431 0.311361 23.3467 0.482286 23.5177C0.653211 23.6886 0.856812 23.8233 1.08094 23.9139C1.30508 24.0044 1.54515 24.0489 1.78683 24.0446C2.02852 24.0403 2.26687 23.9874 2.48767 23.8891C2.70847 23.7907 2.90719 23.6488 3.07198 23.472L12 14.544L20.928 23.472C21.2692 23.7899 21.7205 23.963 22.1868 23.9548C22.6532 23.9466 23.0981 23.7577 23.4279 23.4279C23.7577 23.0981 23.9466 22.6532 23.9548 22.1868C23.963 21.7205 23.7899 21.2692 23.472 20.928L14.544 12L23.472 3.07198Z" fill="var(--accent-foreground)"/>
</g>
<defs>
<clipPath id="clip0_21126_11924">
<rect width="24" height="24" fill="white"/>
</clipPath>
</defs>
</svg>
